<svg width="137" height="42" viewBox="0 0 137 42" fill="none" xmlns="http://www.w3.org/2000/svg">
<path d="M1 32L13.4939 23.4328C16.7548 21.1967 20.6161 20 24.57 20C28.4367 20 32.2168 21.1445 35.4341 23.2894L45.6589 30.1059C47.5114 31.341 49.6881 32 51.9145 32C55.4342 32 58.752 30.3568 60.885 27.5572L63.4902 24.1378C64.821 22.3912 65.8543 20.437 66.5487 18.354L70.3117 7.06488C70.759 5.72288 71.6201 4.55711 72.7712 3.73489C75.6928 1.64798 79.7407 2.23804 81.945 5.07218L92 18L104.624 36.7329C106.422 39.4006 109.429 41 112.646 41C115.121 41 117.501 40.0513 119.298 38.3492L123.02 34.8234C124.99 32.9573 126.597 30.7428 127.761 28.2917L135.5 12" stroke="#388075" stroke-width="2" stroke-linecap="round"/>
</svg>
