<svg width="136" height="45" viewBox="0 0 136 45" fill="none" xmlns="http://www.w3.org/2000/svg">
<path d="M1.00049 18.5L20.1136 24.871C22.3569 25.6188 24.706 26 27.0706 26H36.7922C38.5909 26 40.3829 25.7794 42.1279 25.3431L61.4943 20.5015C62.8267 20.1684 64.195 20 65.5684 20H67.5441C72.4515 20 76.9698 22.6715 79.3348 26.9715L79.4845 27.2437C80.479 29.0519 81.0005 31.0821 81.0005 33.1457V39.4004C81.0005 41.2304 82.2253 42.834 83.9909 43.3156C85.5203 43.7327 87.1527 43.221 88.1703 42.0055L120.187 3.76286C121.653 2.01172 123.82 1 126.104 1C129.093 1 131.813 2.72618 133.085 5.43062L133.959 7.28584C134.645 8.74395 135 10.3356 135 11.9471V26" stroke="#7D2D54" stroke-width="2" stroke-linecap="round"/>
</svg>
