<svg width="137" height="35" viewBox="0 0 137 35" fill="none" xmlns="http://www.w3.org/2000/svg">
<path d="M1 27.5L2.47389 26.3209C6.37478 23.2002 11.2216 21.5 16.2172 21.5H16.7316C19.2257 21.5 21.7017 21.9241 24.0536 22.7542L29.524 24.6849C34.6582 26.497 40.2818 26.3409 45.3076 24.2468L55.5 20C61.5995 17.2552 68.7371 18.2957 73.7992 22.6675L79.6802 27.7466C84.4027 31.8251 91.1331 32.6162 96.6726 29.7438C99.4874 28.2843 101.777 25.9839 103.224 23.1625L110.022 9.9067C110.668 8.64652 111.543 7.51729 112.602 6.5764L112.838 6.36628C116.95 2.71121 123.122 2.62866 127.33 6.17245C128.754 7.37146 129.852 8.90999 130.524 10.6459L135.5 23.5" stroke="#6F2BF2" stroke-width="2" stroke-linecap="round"/>
</svg>
